<svg class="extracted-svg ex-whatsapp" viewBox="-11 -11 44 44" enable-background="new 0 0 44 44" width="44px" height="44px" aria-hidden="true" focusable="false">
    <g><path d="M0.6 19.4L1.9 14.7C1 13.3 0.6 11.7 0.6 10 0.6 4.8 4.8 0.5 10 0.5 15.2 0.5 19.4 4.8 19.4 10 19.4 15.2 15.2 19.4 10 19.4 8.4 19.4 6.8 19 5.4 18.2L0.6 19.4ZM5.6 16.5L5.9 16.7C7.2 17.4 8.6 17.8 10 17.8 14.3 17.8 17.8 14.3 17.8 10 17.8 5.7 14.3 2.1 10 2.1 5.7 2.1 2.2 5.7 2.2 10 2.2 11.5 2.6 12.9 3.4 14.2L3.6 14.5 2.8 17.2 5.6 16.5Z M7.4 5.6L6.7 5.5C6.6 5.5 6.4 5.6 6.2 5.7 5.9 6 5.5 6.5 5.3 7.1 5.1 8.1 5.4 9.3 6.3 10.5 7.2 11.6 8.8 13.5 11.6 14.4 12.6 14.6 13.3 14.4 13.8 14.1 14.3 13.8 14.6 13.3 14.7 12.8L14.8 12.4C14.8 12.2 14.8 12.1 14.6 12L12.6 11.1C12.4 11 12.3 11 12.2 11.2L11.4 12.2C11.3 12.3 11.2 12.3 11.1 12.3 10.5 12.1 8.7 11.3 7.7 9.3 7.6 9.3 7.6 9.2 7.7 9.1L8.5 8.2C8.5 8.1 8.6 8 8.5 7.9L7.6 5.8C7.6 5.7 7.5 5.6 7.4 5.6Z"/></g>
</svg>